<svg xmlns="http://www.w3.org/2000/svg" width="192" height="192" viewBox="0 0 192 192">
  <rect width="192" height="192" rx="44" fill="#131313"/>
  <defs>
    <linearGradient id="drishti192" x1="32" y1="28" x2="156" y2="164" gradientUnits="userSpaceOnUse">
      <stop offset="0" stop-color="#AAC7FF"/>
      <stop offset="1" stop-color="#3E90FF"/>
    </linearGradient>
  </defs>
  <path d="M101.5 176c-2.8 3.6-8.5 1.6-8.5-3V129.2c0-5-4.1-9.1-9.1-9.1H35.6c-3.7 0-5.9-4.2-3.7-7.2l31.7-44.4c4.5-6.3 0-15.2-7.8-15.2H18.4c-3.8 0-5.9-4.2-3.7-7.2L55.7 8c.9-1.3 2.2-2 3.7-2h122.5c3.7 0 5.9 4.2 3.7 7.2l-31.7 44.4c-4.5 6.4 0 15.2 7.8 15.2H174c3.9 0 6.1 4.4 3.7 7.3L101.5 176Z" fill="url(#drishti192)"/>
  <circle cx="137" cy="49" r="16" fill="#4ADE80"/>
  <circle cx="137" cy="49" r="7" fill="#131313"/>
</svg>
